<svg width="31" height="32" viewBox="0 0 31 32" fill="none" xmlns="http://www.w3.org/2000/svg">
<g clip-path="url(#clip0_3_115)">
<rect width="30.8624" height="30.8624" transform="translate(0.125977 0.332947)" fill="black"/>
<path d="M28.4559 4.59977C29.8465 4.59977 30.9842 5.73753 30.9842 7.12806V7.86101L27.4716 10.3701L15.513 18.6079L3.55437 10.2866V26.9285H2.65429C1.26376 26.9285 0.125977 25.7907 0.125977 24.4002V7.12876C0.125977 5.73821 1.26376 4.60044 2.65429 4.60044L15.513 14.1342L28.4552 4.60044L28.4559 4.59977Z" fill="#E75A4D"/>
<path d="M2.65429 4.59977L15.513 14.1335L28.4559 4.59977H2.65429Z" fill="url(#paint0_linear_3_115)"/>
<path d="M3.55437 10.2866V26.9285H27.4723V10.3701L15.513 18.6079L3.55437 10.2866Z" fill="#E7E4D7"/>
<path d="M3.55437 26.9285L15.513 18.6079L15.4589 18.5695L3.55437 26.7456V26.9285Z" fill="#B8B7AE"/>
<path d="M27.4723 10.3701L27.4791 26.9285L15.513 18.6079L27.4723 10.3701Z" fill="#B7B6AD"/>
<path d="M30.9842 7.86101L30.9884 24.4022C30.9281 26.2407 30.1314 26.897 27.4791 26.9278L27.4723 10.3695L30.9849 7.86033L30.9842 7.86101Z" fill="#B2392F"/>
<path d="M2.65429 4.59977L15.513 14.1335L28.4559 4.59977H2.65429Z" fill="url(#paint1_linear_3_115)"/>
<path d="M2.65429 4.59977L15.513 14.1335L28.4559 4.59977H2.65429Z" fill="url(#paint2_linear_3_115)"/>
<path d="M2.65429 4.59977L15.513 14.1335L28.4559 4.59977H2.65429Z" fill="url(#paint3_linear_3_115)"/>
<path d="M2.65429 4.59977L15.513 14.1335L28.4559 4.59977H2.65429Z" fill="url(#paint4_linear_3_115)"/>
<path d="M2.65429 4.59977L15.513 14.1335L28.4559 4.59977H2.65429Z" fill="url(#paint5_linear_3_115)"/>
<path d="M2.65429 4.59977L15.513 14.1335L28.4559 4.59977H2.65429Z" fill="url(#paint6_linear_3_115)"/>
<path d="M2.65429 4.59977L15.513 14.1335L28.4559 4.59977H2.65429Z" fill="url(#paint7_linear_3_115)"/>
<path d="M2.65429 4.59977L15.513 14.1335L28.4559 4.59977H2.65429Z" fill="#F7F5ED"/>
</g>
<defs>
<linearGradient id="paint0_linear_3_115" x1="7.29656" y1="9.36745" x2="23.7823" y2="9.36745" gradientUnits="userSpaceOnUse">
<stop stop-color="#F8F6EF"/>
<stop offset="1" stop-color="#E7E4D6"/>
</linearGradient>
<linearGradient id="paint1_linear_3_115" x1="7.29656" y1="9.36745" x2="23.7823" y2="9.36745" gradientUnits="userSpaceOnUse">
<stop stop-color="#F8F6EF"/>
<stop offset="1" stop-color="#E7E4D6"/>
</linearGradient>
<linearGradient id="paint2_linear_3_115" x1="7.29656" y1="9.36745" x2="23.7823" y2="9.36745" gradientUnits="userSpaceOnUse">
<stop stop-color="#F8F6EF"/>
<stop offset="1" stop-color="#E7E4D6"/>
</linearGradient>
<linearGradient id="paint3_linear_3_115" x1="7.29656" y1="9.36745" x2="23.7823" y2="9.36745" gradientUnits="userSpaceOnUse">
<stop stop-color="#F8F6EF"/>
<stop offset="1" stop-color="#E7E4D6"/>
</linearGradient>
<linearGradient id="paint4_linear_3_115" x1="7.29656" y1="9.36745" x2="23.7823" y2="9.36745" gradientUnits="userSpaceOnUse">
<stop stop-color="#F8F6EF"/>
<stop offset="1" stop-color="#E7E4D6"/>
</linearGradient>
<linearGradient id="paint5_linear_3_115" x1="7.29656" y1="9.36745" x2="23.7823" y2="9.36745" gradientUnits="userSpaceOnUse">
<stop stop-color="#F8F6EF"/>
<stop offset="1" stop-color="#E7E4D6"/>
</linearGradient>
<linearGradient id="paint6_linear_3_115" x1="7.29656" y1="9.36745" x2="23.7823" y2="9.36745" gradientUnits="userSpaceOnUse">
<stop stop-color="#F8F6EF"/>
<stop offset="1" stop-color="#E7E4D6"/>
</linearGradient>
<linearGradient id="paint7_linear_3_115" x1="7.29656" y1="9.36745" x2="23.7823" y2="9.36745" gradientUnits="userSpaceOnUse">
<stop stop-color="#F8F6EF"/>
<stop offset="1" stop-color="#E7E4D6"/>
</linearGradient>
<clipPath id="clip0_3_115">
<rect width="30.8624" height="30.8624" fill="white" transform="translate(0.125977 0.332947)"/>
</clipPath>
</defs>
</svg>
