<svg width="120" height="120" viewBox="0 0 120 120" fill="none" xmlns="http://www.w3.org/2000/svg">
<path d="M60 60C54.5 60 49.7917 58.0417 45.875 54.125C41.9583 50.2083 40 45.5 40 40C40 34.5 41.9583 29.7917 45.875 25.875C49.7917 21.9583 54.5 20 60 20C65.5 20 70.2083 21.9583 74.125 25.875C78.0417 29.7917 80 34.5 80 40C80 45.5 78.0417 50.2083 74.125 54.125C70.2083 58.0417 65.5 60 60 60ZM20 100V86C20 83.1667 20.7292 80.5625 22.1875 78.1875C23.6458 75.8125 25.5833 74 28 72.75C33.1667 70.1667 38.4167 68.2292 43.75 66.9375C49.0833 65.6458 54.5 65 60 65C65.5 65 70.9167 65.6458 76.25 66.9375C81.5833 68.2292 86.8333 70.1667 92 72.75C94.4167 74 96.3542 75.8125 97.8125 78.1875C99.2708 80.5625 100 83.1667 100 86V100H20Z" fill="white"/>
<path d="M60 60C54.5 60 49.7917 58.0417 45.875 54.125C41.9583 50.2083 40 45.5 40 40C40 34.5 41.9583 29.7917 45.875 25.875C49.7917 21.9583 54.5 20 60 20C65.5 20 70.2083 21.9583 74.125 25.875C78.0417 29.7917 80 34.5 80 40C80 45.5 78.0417 50.2083 74.125 54.125C70.2083 58.0417 65.5 60 60 60ZM20 100V86C20 83.1667 20.7292 80.5625 22.1875 78.1875C23.6458 75.8125 25.5833 74 28 72.75C33.1667 70.1667 38.4167 68.2292 43.75 66.9375C49.0833 65.6458 54.5 65 60 65C65.5 65 70.9167 65.6458 76.25 66.9375C81.5833 68.2292 86.8333 70.1667 92 72.75C94.4167 74 96.3542 75.8125 97.8125 78.1875C99.2708 80.5625 100 83.1667 100 86V100H20Z" fill="white"/>
</svg>
