<svg width="18" height="20" viewBox="0 0 18 20" fill="none" xmlns="http://www.w3.org/2000/svg">
<path fill-rule="evenodd" clip-rule="evenodd" d="M9 2C6.79086 2 5 3.79086 5 6C5 8.20914 6.79086 10 9 10C11.2091 10 13 8.20914 13 6C13 3.79086 11.2091 2 9 2ZM12.641 10.7694C14.075 9.67298 15 7.94452 15 6C15 2.68629 12.3137 0 9 0C5.68629 0 3 2.68629 3 6C3 7.94452 3.92501 9.67298 5.35901 10.7694C4.35354 11.2142 3.4285 11.8436 2.63604 12.636C2.02411 13.248 1.50935 13.939 1.10177 14.6851C0.349656 16.0619 0.656382 17.4657 1.50339 18.4584C2.3188 19.414 3.62502 20 5 20H13C14.375 20 15.6812 19.414 16.4966 18.4584C17.3436 17.4657 17.6503 16.0619 16.8982 14.6851C16.4907 13.939 15.9759 13.248 15.364 12.636C14.5715 11.8436 13.6465 11.2142 12.641 10.7694ZM9 12C7.14349 12 5.36301 12.7375 4.05025 14.0503C3.57425 14.5263 3.17394 15.0637 2.85696 15.6439C2.54999 16.2058 2.64902 16.7198 3.02481 17.1602C3.4322 17.6376 4.16584 18 5 18H13C13.8342 18 14.5678 17.6376 14.9752 17.1602C15.351 16.7198 15.45 16.2058 15.143 15.6439C14.8261 15.0637 14.4258 14.5263 13.9497 14.0503C12.637 12.7375 10.8565 12 9 12Z" fill="white"/>
</svg>
